<svg width="30" height="30" viewBox="0 0 30 30" fill="none" xmlns="http://www.w3.org/2000/svg">
<path d="M18.0695 5C17.8212 5.44461 17.6 5.90377 17.407 6.375C15.5104 6.07506 13.5785 6.07506 11.682 6.375C11.4889 5.90377 11.2677 5.44461 11.0195 5C9.23294 5.30525 7.49621 5.85192 5.85695 6.625C2.92563 10.8554 1.59625 15.9912 2.10695 21.1125C4.01725 22.5486 6.16127 23.6438 8.44445 24.35C8.96434 23.6633 9.42833 22.9359 9.83195 22.175C9.08704 21.9004 8.37107 21.5528 7.69445 21.1375C7.88003 21.014 8.05557 20.8761 8.21945 20.725C10.1925 21.6754 12.3544 22.1689 14.5445 22.1689C16.7345 22.1689 18.8964 21.6754 20.8695 20.725C21.0445 20.875 21.2195 21.0125 21.3945 21.1375C20.7141 21.5496 19.9989 21.9009 19.257 22.1875C19.6438 22.9657 20.0954 23.71 20.607 24.4125C22.8873 23.7088 25.0276 22.6132 26.932 21.175C27.4549 16.0528 26.1245 10.9127 23.182 6.6875C21.5611 5.89842 19.8415 5.33084 18.0695 5ZM10.3945 18.1875C9.76893 18.1426 9.18513 17.8571 8.7656 17.391C8.34608 16.9248 8.12345 16.3143 8.14445 15.6875C8.12028 15.0599 8.34181 14.4476 8.76197 13.9808C9.18212 13.5139 9.76778 13.2293 10.3945 13.1875C11.0211 13.2293 11.6068 13.5139 12.0269 13.9808C12.4471 14.4476 12.6686 15.0599 12.6445 15.6875C12.6686 16.3151 12.4471 16.9274 12.0269 17.3942C11.6068 17.8611 11.0211 18.1457 10.3945 18.1875ZM18.6945 18.1875C18.0689 18.1426 17.4851 17.8571 17.0656 17.391C16.6461 16.9248 16.4234 16.3143 16.4445 15.6875C16.4203 15.0599 16.6418 14.4476 17.062 13.9808C17.4821 13.5139 18.0678 13.2293 18.6945 13.1875C19.3223 13.2262 19.9098 13.5099 20.3306 13.9774C20.7514 14.445 20.9719 15.0591 20.9445 15.6875C20.9719 16.3159 20.7514 16.93 20.3306 17.3976C19.9098 17.8651 19.3223 18.1488 18.6945 18.1875Z" fill="#293F48"/>
</svg>
