<svg width="50" height="50" viewBox="0 0 50 50" fill="none" xmlns="http://www.w3.org/2000/svg">
<g clip-path="url(#clip0_189_743)">
<path d="M49.0391 44.9844C48.7192 43.5782 48.0506 42.2751 47.0949 41.1952C46.1392 40.1152 44.9271 39.2932 43.5703 38.8047C45.5312 37.2422 45.3203 35.2891 45.3203 33.5938C45.3203 32.3505 44.8264 31.1583 43.9474 30.2792C43.0683 29.4001 41.876 28.9062 40.6328 28.9062C39.3896 28.9062 38.1973 29.4001 37.3182 30.2792C36.4392 31.1583 35.9453 32.3505 35.9453 33.5938C35.9453 35.3438 35.7344 37.2188 37.6875 38.7969C35.9642 39.4151 34.4852 40.5709 33.4687 42.0938C32.9394 40.9779 32.1949 39.9776 31.2778 39.1504C30.3608 38.3232 29.2893 37.6853 28.125 37.2734C30.6328 35.4922 30.4687 33.1016 30.4687 31.25C30.4687 29.7996 29.8926 28.4086 28.867 27.383C27.8414 26.3574 26.4504 25.7812 25 25.7812C23.5496 25.7812 22.1586 26.3574 21.133 27.383C20.1074 28.4086 19.5312 29.7996 19.5312 31.25C19.5312 32.9844 19.2656 35.4375 21.875 37.2734C20.715 37.6907 19.6487 38.3325 18.7372 39.1624C17.8256 39.9922 17.0866 40.9936 16.5625 42.1094C15.5506 40.5806 14.0704 39.421 12.3437 38.8047C14.3047 37.2422 14.0937 35.2891 14.0937 33.5938C14.0937 32.3464 13.5982 31.1501 12.7162 30.2681C11.8342 29.3861 10.638 28.8906 9.39062 28.8906C8.14327 28.8906 6.94701 29.3861 6.06501 30.2681C5.183 31.1501 4.68749 32.3464 4.68749 33.5938C4.68749 35.375 4.48437 37.2188 6.42187 38.7969C5.06408 39.2861 3.85136 40.1093 2.89559 41.1907C1.93982 42.2721 1.27179 43.5768 0.953119 44.9844L-6.20447e-06 49.0469C-0.0455903 49.2541 -0.00699733 49.4709 0.107283 49.6496C0.221563 49.8284 0.402168 49.9544 0.609369 50C0.816569 50.0456 1.03339 50.007 1.21214 49.8927C1.39088 49.7784 1.51691 49.5978 1.56249 49.3906L2.47656 45.3125C2.81643 43.8644 3.60387 42.5601 4.72708 41.585C5.85029 40.6098 7.25217 40.0133 8.73367 39.8801C10.2152 39.7469 11.701 40.0838 12.9801 40.843C14.2592 41.6022 15.2667 42.7451 15.8594 44.1094C15.8047 44.3516 16.0234 43.2422 14.8594 49.0625C14.8179 49.2697 14.8605 49.4849 14.9777 49.6607C15.0949 49.8365 15.2772 49.9586 15.4844 50C15.6916 50.0414 15.9067 49.9989 16.0826 49.8817C16.2584 49.7645 16.3804 49.5822 16.4219 49.375L17.3594 44.5312C17.7326 42.7816 18.6949 41.2131 20.0856 40.0878C21.4763 38.9624 23.211 38.3485 25 38.3485C26.789 38.3485 28.5237 38.9624 29.9144 40.0878C31.3051 41.2131 32.2674 42.7816 32.6406 44.5312L33.5937 49.375C33.6352 49.5822 33.7572 49.7645 33.9331 49.8817C34.1089 49.9989 34.324 50.0414 34.5312 50C34.7384 49.9586 34.9207 49.8365 35.0379 49.6607C35.1551 49.4849 35.1977 49.2697 35.1562 49.0625C33.9687 43.1328 34.2031 44.3203 34.1641 44.1172C36.8828 37.7891 46.0391 38.7578 47.5391 45.3281L48.4766 49.3906C48.5274 49.5871 48.6527 49.7561 48.826 49.8619C48.9993 49.9676 49.2069 50.0017 49.4049 49.957C49.6029 49.9124 49.7757 49.7924 49.8868 49.6225C49.9979 49.4526 50.0385 49.2462 50 49.0469L49.0391 44.9844ZM6.24999 35.1562V33.5938C6.24999 32.7649 6.57923 31.9701 7.16529 31.384C7.75134 30.798 8.54619 30.4688 9.37499 30.4688C10.2038 30.4688 10.9987 30.798 11.5847 31.384C12.1708 31.9701 12.5 32.7649 12.5 33.5938V35.1562C12.5 35.9851 12.1708 36.7799 11.5847 37.366C10.9987 37.952 10.2038 38.2812 9.37499 38.2812C8.54619 38.2812 7.75134 37.952 7.16529 37.366C6.57923 36.7799 6.24999 35.9851 6.24999 35.1562ZM21.0937 32.8125V31.25C21.0937 30.214 21.5053 29.2204 22.2379 28.4879C22.9704 27.7553 23.964 27.3438 25 27.3438C26.036 27.3438 27.0296 27.7553 27.7621 28.4879C28.4947 29.2204 28.9062 30.214 28.9062 31.25V32.8125C28.9062 33.8485 28.4947 34.8421 27.7621 35.5746C27.0296 36.3072 26.036 36.7188 25 36.7188C23.964 36.7188 22.9704 36.3072 22.2379 35.5746C21.5053 34.8421 21.0937 33.8485 21.0937 32.8125ZM37.5 35.1562V33.5938C37.5 32.7649 37.8292 31.9701 38.4153 31.384C39.0013 30.798 39.7962 30.4688 40.625 30.4688C41.4538 30.4688 42.2486 30.798 42.8347 31.384C43.4208 31.9701 43.75 32.7649 43.75 33.5938V35.1562C43.75 35.9851 43.4208 36.7799 42.8347 37.366C42.2486 37.952 41.4538 38.2812 40.625 38.2812C39.7962 38.2812 39.0013 37.952 38.4153 37.366C37.8292 36.7799 37.5 35.9851 37.5 35.1562Z" fill="#ECFEFF"/>
<path d="M46.875 0H3.125C2.2962 0 1.50134 0.32924 0.915291 0.915291C0.32924 1.50134 0 2.2962 0 3.125L0 14.0625C0 14.8913 0.32924 15.6862 0.915291 16.2722C1.50134 16.8583 2.2962 17.1875 3.125 17.1875H21.4219L24.3203 22.2656C24.3885 22.3859 24.4873 22.4859 24.6067 22.5554C24.7261 22.625 24.8618 22.6617 25 22.6617C25.1382 22.6617 25.2739 22.625 25.3933 22.5554C25.5127 22.4859 25.6115 22.3859 25.6797 22.2656L28.5781 17.1875H46.875C47.7038 17.1875 48.4987 16.8583 49.0847 16.2722C49.6708 15.6862 50 14.8913 50 14.0625V3.125C50 2.2962 49.6708 1.50134 49.0847 0.915291C48.4987 0.32924 47.7038 0 46.875 0ZM48.4375 14.0625C48.4375 14.4769 48.2729 14.8743 47.9799 15.1674C47.6868 15.4604 47.2894 15.625 46.875 15.625H28.125C27.5156 15.625 27.6328 15.6953 25 20.3125C22.3672 15.7109 22.4844 15.625 21.875 15.625H3.125C2.7106 15.625 2.31317 15.4604 2.02015 15.1674C1.72712 14.8743 1.5625 14.4769 1.5625 14.0625V3.125C1.5625 2.7106 1.72712 2.31317 2.02015 2.02015C2.31317 1.72712 2.7106 1.5625 3.125 1.5625H46.875C47.2894 1.5625 47.6868 1.72712 47.9799 2.02015C48.2729 2.31317 48.4375 2.7106 48.4375 3.125V14.0625Z" fill="#ECFEFF"/>
<path d="M25 4.49999C21.0547 1.84373 15.1875 8.46092 24.6484 13.1953C24.7575 13.2502 24.8779 13.2789 25 13.2789C25.1221 13.2789 25.2425 13.2502 25.3516 13.1953C34.75 8.49217 29 1.80467 25 4.49999ZM25 11.6172C17.7734 7.60936 22.4687 4.03905 24.4453 6.05467C24.5179 6.1279 24.6043 6.18602 24.6995 6.22568C24.7947 6.26534 24.8969 6.28576 25 6.28576C25.1031 6.28576 25.2052 6.26534 25.3004 6.22568C25.3956 6.18602 25.4821 6.1279 25.5547 6.05467C27.5391 4.03905 32.2344 7.60155 25 11.6172Z" fill="#ECFEFF"/>
<path d="M13.4453 6.89841L11.0078 6.56248L9.92968 4.34373C9.8657 4.21164 9.76582 4.10024 9.64146 4.0223C9.51711 3.94436 9.37331 3.90302 9.22655 3.90302C9.07979 3.90302 8.93599 3.94436 8.81164 4.0223C8.68728 4.10024 8.5874 4.21164 8.52343 4.34373L7.4453 6.56248C5.22655 6.86716 4.59374 6.77341 4.37499 7.42966C4.15624 8.08591 4.55468 8.21091 6.35155 9.93748C5.9453 12.2109 5.68749 12.7344 6.22655 13.1328C6.76561 13.5312 7.0078 13.2031 9.22655 12.0312C11.5078 13.2812 11.4844 13.2812 11.7656 13.2812C11.8804 13.2829 11.9942 13.2593 12.0988 13.212C12.2034 13.1647 12.2963 13.0949 12.3709 13.0077C12.4455 12.9204 12.4999 12.8177 12.5303 12.707C12.5607 12.5963 12.5664 12.4803 12.5469 12.3672L12.1172 9.93748L13.8906 8.23435C13.9963 8.13193 14.0708 8.00175 14.1058 7.85881C14.1407 7.71587 14.1345 7.56597 14.088 7.42638C14.0414 7.28678 13.9564 7.16317 13.8427 7.06976C13.729 6.97636 13.5913 6.91696 13.4453 6.89841ZM10.7109 11.0547C8.99218 10.1328 9.46874 10.1328 7.74218 11.0547C8.07811 9.13279 8.21874 9.57029 6.8203 8.22654C8.7578 7.9531 8.3828 8.22654 9.22655 6.47654C10.0781 8.22654 9.70311 7.9531 11.6328 8.22654C10.2187 9.58591 10.375 9.1406 10.7109 11.0547Z" fill="#ECFEFF"/>
<path d="M42.9687 7.03125H42.4062L42.5703 6.39063C42.6424 6.09552 42.6466 5.7879 42.5826 5.49094C42.5186 5.19397 42.388 4.91541 42.2007 4.67622C42.0134 4.43704 41.7743 4.24347 41.5014 4.1101C41.2284 3.97672 40.9288 3.90702 40.625 3.90625C39.9922 3.90625 39.9844 4.21875 38.6094 6.96875C38.4823 7.2364 38.3929 7.52034 38.3437 7.8125H35.9375C35.7303 7.8125 35.5316 7.89481 35.3851 8.04132C35.2386 8.18784 35.1562 8.38655 35.1562 8.59375V12.5C35.1562 12.7072 35.2386 12.9059 35.3851 13.0524C35.5316 13.1989 35.7303 13.2812 35.9375 13.2812H41.9687C42.455 13.2831 42.9297 13.1337 43.3273 12.8538C43.7248 12.5738 44.0254 12.1772 44.1875 11.7188C44.5021 10.7089 44.6188 9.64783 44.5312 8.59375C44.5312 8.17935 44.3666 7.78192 44.0736 7.4889C43.7806 7.19587 43.3831 7.03125 42.9687 7.03125ZM36.7187 9.375H38.2812V11.7188H36.7187V9.375ZM41.9687 11.7188H39.8437C39.8437 7.25 39.5703 8.53906 41 5.67969C41.2969 6.17188 40.2656 7.625 40.7891 8.29688C41.0937 8.67969 41.3672 8.59375 42.9687 8.59375C42.9687 9.71094 43.0937 11.7188 41.9687 11.7188Z" fill="#ECFEFF"/>
</g>
<defs>
<clipPath id="clip0_189_743">
<rect width="50" height="50" fill="white"/>
</clipPath>
</defs>
</svg>
