<svg width="50" height="50" viewBox="0 0 50 50" fill="none" xmlns="http://www.w3.org/2000/svg">
<g clip-path="url(#clip0_189_713)">
<path d="M43.8594 24.2188H39.8438C39.685 20.8233 38.3447 17.5901 36.0547 15.0781L38.9219 12.2188C39.4985 12.5577 40.1687 12.7027 40.8339 12.6323C41.4991 12.562 42.1241 12.2801 42.6172 11.8281C43.0522 11.4294 43.3655 10.9156 43.5207 10.3462C43.6759 9.77681 43.6667 9.17512 43.4942 8.61075C43.3216 8.04638 42.9928 7.5424 42.5458 7.15714C42.0987 6.77187 41.5517 6.52107 40.968 6.43376C40.3844 6.34645 39.7879 6.42619 39.2477 6.66377C38.7075 6.90134 38.2456 7.28703 37.9154 7.77621C37.5853 8.26538 37.4004 8.83804 37.3822 9.42791C37.364 10.0178 37.5132 10.6008 37.8125 11.1094L34.9219 13.9766C32.4247 11.6591 29.1848 10.305 25.7812 10.1562V6.14062C29.3906 5.20312 28.5625 0 25 0C24.246 0.00903755 23.5207 0.290396 22.9579 0.792187C22.395 1.29398 22.0326 1.98236 21.9374 2.73037C21.8423 3.47839 22.0208 4.23559 22.44 4.86233C22.8593 5.48907 23.491 5.94308 24.2188 6.14062V10.1562C20.8244 10.3135 17.5915 11.6509 15.0781 13.9375L12.2188 11.0781C12.6042 10.4228 12.7375 9.64934 12.5937 8.90274C12.4499 8.15615 12.0388 7.4876 11.4375 7.02232C10.8361 6.55703 10.0858 6.32694 9.32701 6.37514C8.56822 6.42334 7.85302 6.74652 7.3154 7.28415C6.77777 7.82177 6.45459 8.53697 6.40639 9.29576C6.35819 10.0545 6.58828 10.8049 7.05357 11.4062C7.51885 12.0075 8.1874 12.4186 8.93399 12.5624C9.68059 12.7063 10.454 12.573 11.1094 12.1875L13.9766 15.0547C11.689 17.5803 10.3401 20.8161 10.1562 24.2188H6.14062C5.21094 20.6406 0 21.3906 0 25C0 28.6094 5.21094 29.3516 6.14062 25.7812H10.1562C10.3214 29.1761 11.6576 32.4089 13.9375 34.9297L11.0781 37.7812C10.5349 37.4532 9.90291 37.3026 9.27008 37.3502C8.63725 37.3978 8.03496 37.6413 7.54688 38.0469C7.47687 38.0827 7.41554 38.1333 7.36719 38.1953C4.40625 40.9844 8.52344 45.6953 11.7969 42.5859C12.2489 42.0929 12.5308 41.4678 12.6011 40.8027C12.6714 40.1375 12.5264 39.4673 12.1875 38.8906L15.0391 36.0312C17.5614 38.3326 20.8082 39.681 24.2188 39.8438V43.8906C23.5145 44.1069 22.9092 44.565 22.5099 45.1841C22.1106 45.8033 21.9428 46.5436 22.0363 47.2744C22.1297 48.0051 22.4784 48.6794 23.0207 49.1781C23.5629 49.6768 24.264 49.9679 25 50C28.6094 50 29.3594 44.7891 25.7812 43.8594V39.8438C29.1764 39.6799 32.4096 38.3435 34.9297 36.0625L37.7812 38.9219C37.4423 39.4985 37.2973 40.1687 37.3676 40.8339C37.438 41.4991 37.7199 42.1241 38.1719 42.6172C38.5706 43.0522 39.0844 43.3655 39.6538 43.5207C40.2232 43.6759 40.8249 43.6667 41.3893 43.4942C41.9536 43.3216 42.4576 42.9928 42.8429 42.5458C43.2281 42.0987 43.4789 41.5517 43.5662 40.968C43.6536 40.3844 43.5738 39.7879 43.3362 39.2477C43.0987 38.7075 42.713 38.2456 42.2238 37.9154C41.7346 37.5853 41.162 37.4004 40.5721 37.3822C39.9822 37.364 39.3992 37.5132 38.8906 37.8125L36.0312 34.9609C38.3315 32.4378 39.6797 29.1915 39.8438 25.7812H43.8828C44.8203 29.3906 50.0234 28.5625 50.0234 25C50.0371 24.2298 49.7658 23.4817 49.2617 22.8993C48.7576 22.3169 48.0561 21.9412 47.2919 21.8443C46.5277 21.7475 45.7546 21.9363 45.1211 22.3745C44.4876 22.8127 44.0383 23.4695 43.8594 24.2188ZM18.2109 36.4062C20.4343 35.8175 22.5457 34.8673 24.4609 33.5938C24.8393 33.8315 25.2789 33.9537 25.7257 33.9454C26.1726 33.9371 26.6073 33.7986 26.9766 33.5469C28.4586 34.7086 30.0905 35.6651 31.8281 36.3906C29.7728 37.6269 27.4202 38.2814 25.0217 38.2842C22.6232 38.2869 20.2691 37.6378 18.2109 36.4062ZM11.7188 25.5156C13.4706 23.5541 15.5952 21.9607 17.9688 20.8281C18.3188 21.2369 18.7987 21.5127 19.3281 21.6094C20.069 24.8064 21.5457 27.7864 23.6406 30.3125C23.4497 30.6187 23.332 30.9648 23.2968 31.3239C23.2616 31.683 23.3097 32.0454 23.4375 32.3828C21.3267 33.7619 18.9678 34.7171 16.4922 35.1953C15.0634 34.0058 13.9002 32.5296 13.0779 30.8622C12.2556 29.1948 11.7926 27.3733 11.7188 25.5156ZM19.0859 13.1016C18.8416 14.4494 18.729 15.8178 18.75 17.1875C18.3308 17.3811 17.9782 17.6943 17.7363 18.0876C17.4945 18.481 17.3742 18.937 17.3906 19.3984C15.3457 20.3533 13.4655 21.627 11.8203 23.1719C12.1287 21.0284 12.9532 18.992 14.223 17.2378C15.4927 15.4836 17.1696 14.0642 19.1094 13.1016H19.0859ZM32.25 13.8828C32.3702 14.9201 32.3912 15.9665 32.3125 17.0078C31.7829 17.1661 31.3264 17.5065 31.0234 17.9688C27.9521 17.2812 24.7667 17.2812 21.6953 17.9688C21.3626 17.4996 20.8715 17.1666 20.3125 17.0312C20.2924 15.4695 20.4629 13.9111 20.8203 12.3906C22.7186 11.7564 24.7364 11.5625 26.7208 11.8237C28.7051 12.085 30.604 12.7945 32.2734 13.8984L32.25 13.8828ZM18.9688 19.3516C18.9688 19.1381 19.0535 18.9335 19.2044 18.7826C19.3553 18.6317 19.56 18.5469 19.7734 18.5469C19.9869 18.5469 20.1915 18.6317 20.3424 18.7826C20.4933 18.9335 20.5781 19.1381 20.5781 19.3516C20.5766 19.4567 20.5543 19.5605 20.5127 19.6571C20.471 19.7537 20.4107 19.8411 20.3353 19.9144C20.2598 19.9876 20.1707 20.0453 20.073 20.0842C19.9752 20.123 19.8708 20.1422 19.7656 20.1406C19.6605 20.1391 19.5566 20.1168 19.4601 20.0752C19.3635 20.0335 19.2761 19.9732 19.2028 19.8978C19.1295 19.8223 19.0719 19.7332 19.033 19.6355C18.9942 19.5377 18.975 19.4333 18.9766 19.3281L18.9688 19.3516ZM26.2969 31.0703C26.4118 31.2101 26.4746 31.3854 26.4746 31.5664C26.4746 31.7474 26.4118 31.9227 26.2969 32.0625C26.1946 32.1869 26.0565 32.2766 25.9013 32.3195C25.7461 32.3623 25.5814 32.3562 25.4299 32.3019C25.2783 32.2476 25.1472 32.1478 25.0545 32.0161C24.9618 31.8845 24.9121 31.7274 24.9121 31.5664C24.9121 31.4054 24.9618 31.2483 25.0545 31.1167C25.1472 30.985 25.2783 30.8852 25.4299 30.8309C25.5814 30.7766 25.7461 30.7705 25.9013 30.8133C26.0565 30.8562 26.1946 30.9459 26.2969 31.0703ZM26.8594 29.5078C26.5635 29.3232 26.2287 29.2101 25.8815 29.1776C25.5344 29.145 25.1844 29.1939 24.8594 29.3203C22.9481 27.022 21.5926 24.3137 20.8984 21.4062C21.2579 21.2154 21.5615 20.9342 21.7793 20.5904C21.9972 20.2465 22.1217 19.8519 22.1406 19.4453C24.9201 18.836 27.7986 18.836 30.5781 19.4453C30.5934 19.8139 30.6954 20.1738 30.876 20.4955C31.0565 20.8172 31.3105 21.0918 31.6172 21.2969C30.7413 24.3977 29.1091 27.2325 26.8672 29.5469L26.8594 29.5078ZM32.9297 20.1328C32.7163 20.1328 32.5116 20.048 32.3607 19.8971C32.2098 19.7462 32.125 19.5415 32.125 19.3281C32.125 19.1147 32.2098 18.91 32.3607 18.7591C32.5116 18.6082 32.7163 18.5234 32.9297 18.5234C33.1431 18.5224 33.3482 18.6062 33.4998 18.7564C33.6515 18.9065 33.7372 19.1108 33.7383 19.3242C33.7393 19.5376 33.6555 19.7427 33.5054 19.8944C33.3552 20.046 33.1509 20.1318 32.9375 20.1328H32.9297ZM33.8906 17.1875C33.9433 16.5297 33.9433 15.8687 33.8906 15.2109C35.5155 16.6865 36.7546 18.5372 37.5 20.6016C36.786 20.1574 36.045 19.7582 35.2812 19.4062C35.2966 18.94 35.1724 18.4798 34.9247 18.0846C34.677 17.6893 34.3169 17.377 33.8906 17.1875ZM41.5703 8.45312C41.7535 8.63534 41.8887 8.86014 41.9637 9.10741C42.0387 9.35467 42.0512 9.61668 42.0001 9.86997C41.949 10.1233 41.8359 10.3599 41.6709 10.5588C41.5059 10.7576 41.2941 10.9124 41.0546 11.0094C40.8151 11.1063 40.5553 11.1423 40.2984 11.1142C40.0416 11.0861 39.7957 10.9947 39.5828 10.8482C39.3699 10.7018 39.1967 10.5048 39.0786 10.275C38.9606 10.0451 38.9013 9.7896 38.9062 9.53125C38.9075 9.22317 38.9999 8.92235 39.1717 8.66661C39.3434 8.41086 39.587 8.2116 39.8717 8.09388C40.1564 7.97616 40.4695 7.94523 40.7718 8.00498C41.074 8.06473 41.3518 8.21249 41.5703 8.42969V8.45312ZM23.4375 3.125C23.4375 2.81597 23.5291 2.51387 23.7008 2.25692C23.8725 1.99997 24.1165 1.7997 24.4021 1.68144C24.6876 1.56318 25.0017 1.53223 25.3048 1.59252C25.6079 1.65281 25.8863 1.80163 26.1049 2.02015C26.3234 2.23867 26.4722 2.51708 26.5325 2.82017C26.5928 3.12327 26.5618 3.43743 26.4436 3.72294C26.3253 4.00845 26.125 4.25248 25.8681 4.42417C25.6111 4.59586 25.309 4.6875 25 4.6875C24.5856 4.6875 24.1882 4.52288 23.8951 4.22985C23.6021 3.93683 23.4375 3.5394 23.4375 3.125ZM8.42969 10.6406C8.21134 10.422 8.0627 10.1436 8.00255 9.84058C7.9424 9.53753 7.97345 9.22345 8.09176 8.93804C8.21007 8.65263 8.41034 8.40871 8.66726 8.23709C8.92417 8.06548 9.2262 7.97389 9.53516 7.97389C9.84412 7.97389 10.1461 8.06548 10.4031 8.23709C10.66 8.40871 10.8602 8.65263 10.9786 8.93804C11.0969 9.22345 11.1279 9.53753 11.0678 9.84058C11.0076 10.1436 10.859 10.422 10.6406 10.6406C10.3418 10.923 9.94629 11.0804 9.53516 11.0804C9.12402 11.0804 8.72848 10.923 8.42969 10.6406ZM3.125 26.5625C2.81597 26.5625 2.51387 26.4709 2.25692 26.2992C1.99997 26.1275 1.7997 25.8835 1.68144 25.5979C1.56318 25.3124 1.53223 24.9983 1.59252 24.6952C1.65281 24.3921 1.80163 24.1137 2.02015 23.8951C2.23867 23.6766 2.51708 23.5278 2.82017 23.4675C3.12327 23.4072 3.43743 23.4382 3.72294 23.5564C4.00845 23.6747 4.25248 23.875 4.42417 24.1319C4.59586 24.3889 4.6875 24.691 4.6875 25C4.6875 25.4144 4.52288 25.8118 4.22985 26.1049C3.93683 26.3979 3.5394 26.5625 3.125 26.5625ZM8.42969 41.5703C8.21134 41.3517 8.0627 41.0733 8.00255 40.7703C7.9424 40.4672 7.97345 40.1531 8.09176 39.8677C8.21007 39.5823 8.41034 39.3384 8.66726 39.1668C8.92417 38.9952 9.2262 38.9036 9.53516 38.9036C9.84412 38.9036 10.1461 38.9952 10.4031 39.1668C10.66 39.3384 10.8602 39.5823 10.9786 39.8677C11.0969 40.1531 11.1279 40.4672 11.0678 40.7703C11.0076 41.0733 10.859 41.3517 10.6406 41.5703C10.4955 41.7156 10.3232 41.8308 10.1335 41.9095C9.94382 41.9881 9.74049 42.0286 9.53516 42.0286C9.32982 42.0286 9.1265 41.9881 8.93681 41.9095C8.74713 41.8308 8.5748 41.7156 8.42969 41.5703ZM26.5625 46.875C26.5625 47.184 26.4709 47.4861 26.2992 47.7431C26.1275 48 25.8835 48.2003 25.5979 48.3186C25.3124 48.4368 24.9983 48.4678 24.6952 48.4075C24.3921 48.3472 24.1137 48.1984 23.8951 47.9799C23.6766 47.7613 23.5278 47.4829 23.4675 47.1798C23.4072 46.8767 23.4382 46.5626 23.5564 46.2771C23.6747 45.9916 23.875 45.7475 24.1319 45.5758C24.3889 45.4041 24.691 45.3125 25 45.3125C25.4144 45.3125 25.8118 45.4771 26.1049 45.7701C26.3979 46.0632 26.5625 46.4606 26.5625 46.875ZM41.5703 39.3594C41.7526 39.5406 41.8874 39.7641 41.9627 40.0099C42.038 40.2557 42.0515 40.5163 42.002 40.7686C41.9524 41.0209 41.8414 41.257 41.6787 41.4561C41.516 41.6552 41.3068 41.8111 41.0694 41.9099C40.8321 42.0088 40.574 42.0475 40.3181 42.0227C40.0622 41.9979 39.8164 41.9104 39.6024 41.7678C39.3885 41.6253 39.213 41.4321 39.0915 41.2055C38.9701 40.9789 38.9065 40.7258 38.9062 40.4688C38.906 40.16 38.9972 39.8581 39.1684 39.6012C39.3396 39.3442 39.5831 39.1438 39.8681 39.0251C40.1531 38.9064 40.4669 38.8748 40.7699 38.9343C41.0728 38.9938 41.3513 39.1417 41.5703 39.3594ZM33.3672 35.3125C31.393 34.6172 29.5457 33.6039 27.8984 32.3125C28.0772 31.807 28.0772 31.2555 27.8984 30.75C30.3807 28.2215 32.1839 25.1069 33.1406 21.6953C33.7427 21.646 34.3024 21.3661 34.7031 20.9141C35.8975 21.47 37.0312 22.1481 38.0859 22.9375C38.4598 25.2331 38.2203 27.5867 37.3916 29.7599C36.5629 31.9331 35.1746 33.8487 33.3672 35.3125ZM46.875 26.5625C46.566 26.5625 46.2639 26.4709 46.0069 26.2992C45.75 26.1275 45.5497 25.8835 45.4314 25.5979C45.3132 25.3124 45.2822 24.9983 45.3425 24.6952C45.4028 24.3921 45.5516 24.1137 45.7701 23.8951C45.9887 23.6766 46.2671 23.5278 46.5702 23.4675C46.8733 23.4072 47.1874 23.4382 47.4729 23.5564C47.7584 23.6747 48.0025 23.875 48.1742 24.1319C48.3459 24.3889 48.4375 24.691 48.4375 25C48.4375 25.4144 48.2729 25.8118 47.9799 26.1049C47.6868 26.3979 47.2894 26.5625 46.875 26.5625Z" fill="#ECFEFF"/>
<path d="M4.5547 19.7812C4.58472 19.589 4.54195 19.3925 4.43475 19.2301C4.32754 19.0678 4.16362 18.9513 3.97506 18.9034C3.78649 18.8555 3.58684 18.8797 3.41518 18.9713C3.24352 19.0628 3.11219 19.2151 3.04688 19.3984C3.01038 19.5009 2.99566 19.6098 3.00368 19.7183C3.0117 19.8267 3.04228 19.9323 3.09346 20.0283C3.14463 20.1242 3.21528 20.2085 3.30088 20.2755C3.38648 20.3426 3.48514 20.3911 3.59056 20.4179C3.69597 20.4446 3.80581 20.4491 3.91304 20.431C4.02028 20.4128 4.12255 20.3725 4.2133 20.3126C4.30406 20.2527 4.3813 20.1744 4.44009 20.0829C4.49888 19.9914 4.53791 19.8887 4.5547 19.7812Z" fill="#ECFEFF"/>
<path d="M6.85937 14.2343C6.93902 14.0581 6.95047 13.8586 6.8915 13.6744C6.83252 13.4902 6.70732 13.3344 6.54012 13.2372C6.37292 13.14 6.1756 13.1083 5.98635 13.1481C5.7971 13.188 5.62937 13.2967 5.51562 13.4531C5.43597 13.6293 5.42452 13.8289 5.48349 14.0131C5.54247 14.1973 5.66767 14.353 5.83487 14.4502C6.00207 14.5475 6.19938 14.5792 6.38864 14.5393C6.57789 14.4994 6.74561 14.3908 6.85937 14.2343Z" fill="#ECFEFF"/>
<path d="M5.50782 16.9297C5.58759 16.738 5.58796 16.5225 5.50884 16.3306C5.42973 16.1386 5.27761 15.986 5.08594 15.9062C4.99104 15.8667 4.88929 15.8463 4.7865 15.8461C4.68371 15.846 4.58189 15.866 4.48685 15.9052C4.29492 15.9843 4.14228 16.1364 4.06251 16.3281C3.98273 16.5198 3.98237 16.7353 4.06148 16.9272C4.1406 17.1191 4.29272 17.2718 4.48438 17.3515C4.67604 17.4313 4.89154 17.4317 5.08347 17.3526C5.27541 17.2734 5.42805 17.1213 5.50782 16.9297Z" fill="#ECFEFF"/>
<path d="M36.8359 6.58591C36.9156 6.40967 36.927 6.21014 36.8681 6.02595C36.8091 5.84175 36.6839 5.68598 36.5167 5.58877C36.3495 5.49156 36.1522 5.45982 35.9629 5.4997C35.7737 5.53958 35.6059 5.64824 35.4922 5.80466C35.4125 5.9809 35.4011 6.18043 35.4601 6.36462C35.519 6.54882 35.6442 6.70459 35.8114 6.8018C35.9786 6.89901 36.1759 6.93075 36.3652 6.89087C36.5544 6.85099 36.7222 6.74233 36.8359 6.58591Z" fill="#ECFEFF"/>
<path d="M34.0938 5.08591C34.1735 4.89425 34.1739 4.67875 34.0948 4.48682C34.0157 4.29489 33.8635 4.14225 33.6719 4.06248C33.4802 3.9827 33.2647 3.98234 33.0728 4.06145C32.8809 4.14057 32.7282 4.29269 32.6484 4.48435C32.5687 4.67601 32.5683 4.89151 32.6474 5.08344C32.7265 5.27538 32.8787 5.42802 33.0703 5.50779C33.262 5.58756 33.4775 5.58793 33.6694 5.50881C33.8613 5.4297 34.014 5.27757 34.0938 5.08591Z" fill="#ECFEFF"/>
<path d="M31.1641 3.9922C31.1703 3.81453 31.1158 3.64002 31.0095 3.49752C30.9032 3.35501 30.7515 3.25303 30.5794 3.20841C30.4073 3.1638 30.2251 3.17921 30.0629 3.25211C29.9008 3.32502 29.7683 3.45105 29.6875 3.60939C29.6812 3.78707 29.7358 3.96157 29.8421 4.10408C29.9484 4.24658 30.1001 4.34856 30.2722 4.39318C30.4443 4.4378 30.6265 4.42238 30.7886 4.34948C30.9508 4.27658 31.0832 4.15055 31.1641 3.9922Z" fill="#ECFEFF"/>
<path d="M45.5078 32.6484C45.3162 32.5697 45.1011 32.5703 44.9099 32.6502C44.7187 32.73 44.567 32.8826 44.4883 33.0742C44.4096 33.2659 44.4102 33.481 44.49 33.6722C44.5699 33.8634 44.7224 34.015 44.9141 34.0938C45.1057 34.1725 45.3208 34.1719 45.512 34.092C45.7032 34.0122 45.8549 33.8596 45.9336 33.668C46.0123 33.4763 46.0117 33.2612 45.9319 33.07C45.852 32.8788 45.6995 32.7272 45.5078 32.6484Z" fill="#ECFEFF"/>
<path d="M44.2109 35.4922C44.0347 35.4125 43.8352 35.4011 43.651 35.4601C43.4668 35.519 43.311 35.6442 43.2138 35.8114C43.1166 35.9786 43.0849 36.1759 43.1247 36.3652C43.1646 36.5544 43.2733 36.7222 43.4297 36.8359C43.6059 36.9156 43.8055 36.927 43.9897 36.8681C44.1738 36.8091 44.3296 36.6839 44.4268 36.5167C44.524 36.3495 44.5558 36.1522 44.5159 35.9629C44.476 35.7737 44.3674 35.6059 44.2109 35.4922Z" fill="#ECFEFF"/>
<path d="M46.3906 29.6875C46.1896 29.6367 45.9767 29.6679 45.7987 29.7741C45.6207 29.8803 45.4922 30.0529 45.4414 30.2539C45.3906 30.4549 45.4218 30.6678 45.528 30.8458C45.6342 31.0238 45.8068 31.1524 46.0078 31.2031C46.2088 31.2539 46.4217 31.2227 46.5997 31.1165C46.7777 31.0103 46.9063 30.8377 46.957 30.6367C47.0078 30.4357 46.9766 30.2228 46.8704 30.0448C46.7642 29.8668 46.5916 29.7383 46.3906 29.6875Z" fill="#ECFEFF"/>
<path d="M16.9219 44.5313C16.8149 44.4857 16.6992 44.4646 16.5831 44.4695C16.4669 44.4744 16.3533 44.5051 16.2506 44.5594C16.1479 44.6138 16.0585 44.6903 15.9891 44.7836C15.9197 44.8768 15.872 44.9844 15.8494 45.0984C15.8269 45.2124 15.83 45.33 15.8587 45.4427C15.8873 45.5553 15.9408 45.6601 16.0151 45.7495C16.0894 45.8389 16.1827 45.9106 16.2882 45.9593C16.3937 46.008 16.5088 46.0326 16.625 46.0313C16.8043 46.0291 16.9774 45.9654 17.1153 45.8508C17.2531 45.7362 17.3474 45.5776 17.3822 45.4017C17.417 45.2259 17.3903 45.0433 17.3064 44.8848C17.2226 44.7263 17.0868 44.6015 16.9219 44.5313Z" fill="#ECFEFF"/>
<path d="M14.2344 43.1406C14.0581 43.061 13.8586 43.0495 13.6744 43.1085C13.4902 43.1675 13.3344 43.2927 13.2372 43.4599C13.14 43.6271 13.1083 43.8244 13.1482 44.0136C13.1881 44.2029 13.2967 44.3706 13.4531 44.4844C13.6294 44.564 13.8289 44.5755 14.0131 44.5165C14.1973 44.4575 14.3531 44.3323 14.4503 44.1651C14.5475 43.9979 14.5792 43.8006 14.5393 43.6114C14.4995 43.4221 14.3908 43.2544 14.2344 43.1406Z" fill="#ECFEFF"/>
<path d="M19.7813 45.4453C19.6321 45.4005 19.473 45.4013 19.3243 45.4476C19.1756 45.4939 19.0441 45.5836 18.9467 45.7052C18.8494 45.8267 18.7906 45.9746 18.7779 46.1298C18.7652 46.285 18.7992 46.4405 18.8755 46.5763C18.9518 46.7121 19.0669 46.8219 19.2061 46.8918C19.3453 46.9616 19.5022 46.9883 19.6566 46.9684C19.8111 46.9484 19.956 46.8827 20.0729 46.7798C20.1898 46.6768 20.2732 46.5413 20.3125 46.3906C20.3635 46.1949 20.3367 45.9871 20.2376 45.8108C20.1385 45.6345 19.9749 45.5035 19.7813 45.4453Z" fill="#ECFEFF"/>
<path d="M6.85937 35.7656C6.74561 35.6092 6.57789 35.5005 6.38864 35.4606C6.19938 35.4208 6.00207 35.4525 5.83487 35.5497C5.66767 35.6469 5.54247 35.8027 5.48349 35.9869C5.42452 36.1711 5.43597 36.3706 5.51562 36.5468C5.62937 36.7033 5.7971 36.8119 5.98635 36.8518C6.1756 36.8917 6.37292 36.86 6.54012 36.7627C6.70732 36.6655 6.83252 36.5098 6.8915 36.3256C6.95047 36.1414 6.93902 35.9418 6.85937 35.7656Z" fill="#ECFEFF"/>
<path d="M5.50782 33.0703C5.42805 32.8786 5.27541 32.7265 5.08347 32.6474C4.89154 32.5683 4.67604 32.5686 4.48438 32.6484C4.29272 32.7282 4.1406 32.8808 4.06148 33.0728C3.98237 33.2647 3.98273 33.4802 4.06251 33.6719C4.14228 33.8635 4.29492 34.0156 4.48685 34.0948C4.67878 34.1739 4.89428 34.1735 5.08594 34.0937C5.2776 34.014 5.42973 33.8613 5.50884 33.6694C5.58796 33.4774 5.58759 33.262 5.50782 33.0703Z" fill="#ECFEFF"/>
<path d="M4.55468 30.2187C4.48938 30.0355 4.35805 29.8832 4.18638 29.7916C4.01472 29.7001 3.81508 29.6759 3.62651 29.7237C3.43794 29.7716 3.27402 29.8881 3.16682 30.0505C3.05962 30.2128 3.01684 30.4093 3.04687 30.6015C3.11217 30.7848 3.2435 30.9371 3.41517 31.0286C3.58683 31.1202 3.78647 31.1444 3.97504 31.0965C4.16361 31.0486 4.32753 30.9321 4.43473 30.7698C4.54193 30.6074 4.58471 30.4109 4.55468 30.2187Z" fill="#ECFEFF"/>
<path d="M35.7656 43.1407C35.6327 43.2195 35.5261 43.3359 35.4594 43.4753C35.3927 43.6146 35.3688 43.7707 35.3907 43.9236C35.4126 44.0766 35.4795 44.2196 35.5827 44.3346C35.6859 44.4496 35.8209 44.5314 35.9707 44.5696C36.1204 44.6079 36.2781 44.6009 36.4238 44.5495C36.5695 44.4981 36.6968 44.4047 36.7894 44.281C36.882 44.1573 36.9359 44.0089 36.9442 43.8546C36.9524 43.7003 36.9148 43.547 36.836 43.4141C36.7303 43.2359 36.5581 43.107 36.3574 43.0557C36.1567 43.0045 35.9438 43.035 35.7656 43.1407Z" fill="#ECFEFF"/>
<path d="M33.0703 44.5313C32.9279 44.5909 32.8063 44.6913 32.721 44.82C32.6356 44.9486 32.5903 45.0997 32.5907 45.254C32.5911 45.4084 32.6372 45.5592 32.7233 45.6874C32.8093 45.8156 32.9314 45.9154 33.0742 45.9742C33.2169 46.0331 33.3739 46.0483 33.5253 46.018C33.6767 45.9877 33.8157 45.9132 33.9248 45.804C34.0338 45.6947 34.1081 45.5556 34.1382 45.4042C34.1683 45.2527 34.1528 45.0958 34.0938 44.9531C34.0544 44.8581 33.9967 44.7718 33.9239 44.6991C33.8512 44.6264 33.7647 44.5689 33.6697 44.5297C33.5746 44.4905 33.4727 44.4704 33.3698 44.4707C33.267 44.471 33.1652 44.4916 33.0703 44.5313Z" fill="#ECFEFF"/>
<path d="M30.2188 45.4453C30.0685 45.4827 29.9328 45.564 29.8289 45.6787C29.7249 45.7934 29.6573 45.9364 29.6348 46.0895C29.6122 46.2427 29.6357 46.3991 29.7021 46.5389C29.7686 46.6787 29.8751 46.7956 30.0082 46.8748C30.1412 46.9539 30.2948 46.9918 30.4494 46.9835C30.604 46.9753 30.7526 46.9213 30.8764 46.8284C31.0003 46.7355 31.0937 46.6079 31.145 46.4618C31.1962 46.3157 31.2028 46.1577 31.1641 46.0078C31.1125 45.8084 30.9842 45.6373 30.8072 45.532C30.6301 45.4266 30.4187 45.3955 30.2188 45.4453Z" fill="#ECFEFF"/>
<path d="M44.5312 16.9297C44.6205 17.1056 44.7731 17.2412 44.9582 17.3093C45.1434 17.3774 45.3475 17.3729 45.5295 17.2968C45.7115 17.2206 45.8579 17.0784 45.9394 16.8988C46.0209 16.7191 46.0313 16.5152 45.9687 16.3281C45.8794 16.1522 45.7269 16.0166 45.5417 15.9485C45.3566 15.8804 45.1525 15.8849 44.9705 15.9611C44.7885 16.0372 44.6421 16.1794 44.5606 16.3591C44.4791 16.5388 44.4686 16.7426 44.5312 16.9297Z" fill="#ECFEFF"/>
<path d="M44.2109 14.5078C44.3674 14.3941 44.476 14.2263 44.5159 14.0371C44.5558 13.8478 44.524 13.6505 44.4268 13.4833C44.3296 13.3161 44.1738 13.1909 43.9897 13.1319C43.8055 13.073 43.6059 13.0844 43.4297 13.1641C43.2733 13.2778 43.1646 13.4455 43.1247 13.6348C43.0849 13.824 43.1166 14.0214 43.2138 14.1886C43.311 14.3558 43.4668 14.481 43.651 14.5399C43.8352 14.5989 44.0347 14.5875 44.2109 14.5078Z" fill="#ECFEFF"/>
<path d="M45.4453 19.7812C45.5106 19.9645 45.6419 20.1168 45.8136 20.2084C45.9853 20.2999 46.1849 20.3241 46.3735 20.2762C46.562 20.2284 46.726 20.1119 46.8332 19.9495C46.9404 19.7872 46.9831 19.5907 46.9531 19.3984C46.9531 18.5078 45.1484 18.6406 45.4453 19.7812Z" fill="#ECFEFF"/>
<path d="M16.625 5.57032C16.7539 5.57021 16.8809 5.53819 16.9944 5.47711C17.108 5.41603 17.2047 5.32779 17.2758 5.22026C17.347 5.11273 17.3904 4.98926 17.4023 4.86086C17.4141 4.73246 17.394 4.60312 17.3437 4.48438C17.2642 4.29439 17.1129 4.14347 16.9227 4.06447C16.7325 3.98546 16.5188 3.98476 16.3281 4.06251C16.1582 4.12962 16.0172 4.25417 15.9295 4.4145C15.8419 4.57483 15.8133 4.76079 15.8486 4.94005C15.8839 5.11932 15.9809 5.28054 16.1227 5.39569C16.2646 5.51084 16.4423 5.57263 16.625 5.57032Z" fill="#ECFEFF"/>
<path d="M14.5078 5.78903C14.3941 5.63262 14.2263 5.52396 14.0371 5.48408C13.8478 5.4442 13.6505 5.47593 13.4833 5.57314C13.3161 5.67035 13.1909 5.82613 13.1319 6.01032C13.073 6.19452 13.0844 6.39404 13.1641 6.57028C13.2778 6.7267 13.4455 6.83536 13.6348 6.87524C13.824 6.91512 14.0214 6.88339 14.1886 6.78618C14.3558 6.68897 14.481 6.53319 14.5399 6.349C14.5989 6.1648 14.5875 5.96528 14.5078 5.78903Z" fill="#ECFEFF"/>
<path d="M19.7812 4.56252C19.9645 4.49722 20.1168 4.36589 20.2083 4.19423C20.2999 4.02256 20.3241 3.82292 20.2762 3.63435C20.2284 3.44579 20.1118 3.28187 19.9495 3.17466C19.7871 3.06746 19.5906 3.02469 19.3984 3.05471C19.2235 3.12579 19.0802 3.25784 18.995 3.42642C18.9099 3.59501 18.8888 3.78872 18.9355 3.97171C18.9822 4.1547 19.0936 4.31458 19.2491 4.42177C19.4046 4.52895 19.5936 4.57618 19.7812 4.55471V4.56252Z" fill="#ECFEFF"/>
</g>
<defs>
<clipPath id="clip0_189_713">
<rect width="50" height="50" fill="white"/>
</clipPath>
</defs>
</svg>
