<svg width="1471" height="403" viewBox="0 0 1471 403" fill="none" xmlns="http://www.w3.org/2000/svg">
<path d="M45.9128 356.547C34.1446 363.342 19.0967 359.309 12.3023 347.541C5.50793 335.773 9.54002 320.725 21.3082 313.931L304.087 150.668C315.855 143.874 330.903 147.906 337.698 159.674C344.492 171.442 340.46 186.49 328.692 193.285L45.9128 356.547Z" fill="white"/>
<path d="M332.32 152.248C341.929 161.856 341.929 177.435 332.32 187.044C322.711 196.652 307.133 196.652 297.524 187.044L199.024 88.5437C189.415 78.935 189.415 63.3562 199.024 53.7475C208.633 44.1388 224.211 44.1388 233.82 53.7475L332.32 152.248Z" fill="white"/>
<path d="M181.696 203.852L128.701 234.513V50.5463C128.701 14.5857 181.696 15.7213 181.696 50.5463V203.852Z" fill="white"/>
<path d="M181.696 295.457L128.701 326.118V376.085C128.701 412.802 181.696 410.531 181.696 376.085V295.457Z" fill="white"/>
<path d="M437.22 265.68V232.92H475.44C483.413 232.92 489.913 230.32 494.94 225.12C500.14 219.92 502.74 213.073 502.74 204.58C502.74 199.033 501.44 194.18 498.84 190.02C496.24 185.687 492.687 182.307 488.18 179.88C483.673 177.453 478.473 176.327 472.58 176.5H437.22V144L473.36 143.74C486.187 143.567 497.54 146.167 507.42 151.54C517.3 156.74 525.013 163.933 530.56 173.12C536.107 182.133 538.88 192.62 538.88 204.58C538.88 216.367 536.193 226.853 530.82 236.04C525.447 245.227 518.08 252.507 508.72 257.88C499.36 263.08 488.527 265.68 476.22 265.68H437.22ZM405.76 326V144H441.38V326H405.76ZM581.152 257.62C581.152 243.58 583.839 231.967 589.212 222.78C594.759 213.593 601.779 206.747 610.272 202.24C618.939 197.733 627.952 195.48 637.312 195.48V228.76C629.339 228.76 621.799 229.713 614.692 231.62C607.759 233.527 602.126 236.647 597.792 240.98C593.459 245.313 591.292 250.86 591.292 257.62H581.152ZM556.972 326V196H591.292V326H556.972ZM716.588 329.12C703.415 329.12 691.628 326.26 681.228 320.54C671.001 314.647 662.941 306.587 657.048 296.36C651.328 286.133 648.468 274.347 648.468 261C648.468 247.653 651.328 235.867 657.048 225.64C662.768 215.413 670.741 207.44 680.968 201.72C691.195 195.827 702.895 192.88 716.068 192.88C729.415 192.88 741.201 195.827 751.428 201.72C761.655 207.44 769.628 215.413 775.348 225.64C781.068 235.867 783.928 247.653 783.928 261C783.928 274.347 781.068 286.133 775.348 296.36C769.628 306.587 761.655 314.647 751.428 320.54C741.375 326.26 729.761 329.12 716.588 329.12ZM716.588 297.4C723.001 297.4 728.635 295.84 733.488 292.72C738.341 289.6 742.068 285.353 744.668 279.98C747.441 274.433 748.828 268.107 748.828 261C748.828 253.893 747.441 247.653 744.668 242.28C741.895 236.733 737.995 232.4 732.968 229.28C728.115 226.16 722.481 224.6 716.068 224.6C709.828 224.6 704.195 226.16 699.168 229.28C694.315 232.4 690.501 236.733 687.728 242.28C684.955 247.653 683.568 253.893 683.568 261C683.568 268.107 684.955 274.433 687.728 279.98C690.501 285.353 694.401 289.6 699.428 292.72C704.455 295.84 710.175 297.4 716.588 297.4ZM865.062 381.38C855.182 381.38 846.429 380.687 838.802 379.3C831.176 377.913 824.762 376.093 819.562 373.84C814.362 371.587 810.116 369.333 806.822 367.08L820.342 339.52C822.769 340.907 825.976 342.467 829.962 344.2C833.949 346.107 838.716 347.667 844.262 348.88C849.809 350.267 856.222 350.96 863.502 350.96C870.436 350.96 876.502 349.573 881.702 346.8C887.076 344.2 891.236 340.04 894.182 334.32C897.302 328.773 898.862 321.667 898.862 313V196H933.182V311.96C933.182 326.52 930.409 339 924.862 349.4C919.316 359.973 911.429 367.947 901.202 373.32C891.149 378.693 879.102 381.38 865.062 381.38ZM858.302 322.36C846.342 322.36 835.942 319.76 827.102 314.56C818.436 309.36 811.676 302.08 806.822 292.72C801.969 283.36 799.542 272.267 799.542 259.44C799.542 245.92 801.969 234.22 806.822 224.34C811.676 214.287 818.436 206.573 827.102 201.2C835.942 195.653 846.342 192.88 858.302 192.88C868.702 192.88 877.716 195.653 885.342 201.2C892.969 206.573 898.862 214.287 903.022 224.34C907.182 234.393 909.262 246.353 909.262 260.22C909.262 272.7 907.182 283.62 903.022 292.98C898.862 302.34 892.969 309.62 885.342 314.82C877.716 319.847 868.702 322.36 858.302 322.36ZM868.182 293.5C874.076 293.5 879.189 292.027 883.522 289.08C888.029 285.96 891.496 281.8 893.922 276.6C896.349 271.227 897.562 265.16 897.562 258.4C897.562 251.467 896.262 245.4 893.662 240.2C891.236 235 887.769 230.927 883.262 227.98C878.929 225.033 873.816 223.56 867.922 223.56C861.856 223.56 856.482 225.033 851.802 227.98C847.122 230.927 843.482 235 840.882 240.2C838.282 245.4 836.896 251.467 836.722 258.4C836.896 265.16 838.282 271.227 840.882 276.6C843.482 281.8 847.122 285.96 851.802 289.08C856.656 292.027 862.116 293.5 868.182 293.5ZM962.715 326V144H997.035V326H962.715ZM1104.7 326L1103.4 299.74V260.22C1103.4 252.42 1102.53 245.833 1100.8 240.46C1099.07 234.913 1096.38 230.753 1092.74 227.98C1089.27 225.033 1084.59 223.56 1078.7 223.56C1073.5 223.56 1068.82 224.687 1064.66 226.94C1060.5 229.193 1056.95 232.833 1054 237.86L1022.8 227.2C1025.23 221.653 1028.78 216.28 1033.46 211.08C1038.14 205.707 1044.21 201.373 1051.66 198.08C1059.29 194.613 1068.56 192.88 1079.48 192.88C1092.48 192.88 1103.31 195.22 1111.98 199.9C1120.82 204.58 1127.41 211.513 1131.74 220.7C1136.07 229.713 1138.15 240.807 1137.98 253.98L1137.2 326H1104.7ZM1068.82 329.12C1053.22 329.12 1041.09 325.653 1032.42 318.72C1023.93 311.787 1019.68 301.993 1019.68 289.34C1019.68 275.473 1024.27 265.073 1033.46 258.14C1042.82 251.033 1055.91 247.48 1072.72 247.48H1105.74V272.96H1084.68C1073.41 272.96 1065.61 274.347 1061.28 277.12C1056.95 279.72 1054.78 283.447 1054.78 288.3C1054.78 292.113 1056.51 295.147 1059.98 297.4C1063.45 299.48 1068.3 300.52 1074.54 300.52C1080.09 300.52 1085.03 299.22 1089.36 296.62C1093.69 293.847 1097.07 290.38 1099.5 286.22C1102.1 281.887 1103.4 277.467 1103.4 272.96H1112.5C1112.5 290.64 1109.03 304.42 1102.1 314.3C1095.34 324.18 1084.25 329.12 1068.82 329.12ZM1165.33 326V144H1199.65V301.82L1197.83 326H1165.33ZM1238.91 329.12C1227.99 329.12 1218.72 326.347 1211.09 320.8C1203.64 315.253 1197.92 307.367 1193.93 297.14C1189.95 286.913 1187.95 274.867 1187.95 261C1187.95 246.96 1189.95 234.913 1193.93 224.86C1197.92 214.633 1203.64 206.747 1211.09 201.2C1218.72 195.653 1227.99 192.88 1238.91 192.88C1250.87 192.88 1261.19 195.653 1269.85 201.2C1278.69 206.747 1285.54 214.633 1290.39 224.86C1295.25 234.913 1297.67 246.96 1297.67 261C1297.67 274.867 1295.25 286.913 1290.39 297.14C1285.54 307.367 1278.69 315.253 1269.85 320.8C1261.19 326.347 1250.87 329.12 1238.91 329.12ZM1230.07 297.66C1236.31 297.66 1241.77 296.1 1246.45 292.98C1251.31 289.86 1255.12 285.527 1257.89 279.98C1260.67 274.433 1262.05 268.107 1262.05 261C1262.05 253.893 1260.67 247.567 1257.89 242.02C1255.29 236.473 1251.57 232.227 1246.71 229.28C1242.03 226.16 1236.57 224.6 1230.33 224.6C1224.44 224.6 1219.15 226.16 1214.47 229.28C1209.79 232.4 1206.15 236.733 1203.55 242.28C1200.95 247.653 1199.65 253.893 1199.65 261C1199.65 268.107 1200.95 274.433 1203.55 279.98C1206.15 285.527 1209.71 289.86 1214.21 292.98C1218.89 296.1 1224.18 297.66 1230.07 297.66ZM1368.83 329.12C1360.51 329.12 1352.71 327.907 1345.43 325.48C1338.15 322.88 1331.74 319.24 1326.19 314.56C1320.65 309.707 1316.31 303.813 1313.19 296.88L1342.57 283.36C1345.17 287.52 1348.73 291.16 1353.23 294.28C1357.74 297.227 1362.94 298.7 1368.83 298.7C1374.55 298.7 1378.97 297.92 1382.09 296.36C1385.21 294.627 1386.77 292.2 1386.77 289.08C1386.77 285.96 1385.47 283.707 1382.87 282.32C1380.45 280.76 1377.07 279.46 1372.73 278.42L1360.77 275.3C1348.29 272.007 1338.41 266.807 1331.13 259.7C1324.03 252.42 1320.47 244.1 1320.47 234.74C1320.47 221.393 1324.72 211.08 1333.21 203.8C1341.88 196.52 1354.1 192.88 1369.87 192.88C1378.02 192.88 1385.56 194.093 1392.49 196.52C1399.6 198.947 1405.67 202.327 1410.69 206.66C1415.72 210.993 1419.19 216.02 1421.09 221.74L1392.75 234.74C1391.54 231.273 1388.59 228.5 1383.91 226.42C1379.23 224.167 1374.55 223.04 1369.87 223.04C1365.19 223.04 1361.55 224.08 1358.95 226.16C1356.53 228.067 1355.31 230.753 1355.31 234.22C1355.31 236.473 1356.53 238.38 1358.95 239.94C1361.38 241.327 1364.85 242.54 1369.35 243.58L1386.25 247.74C1394.75 249.82 1401.51 253.2 1406.53 257.88C1411.73 262.387 1415.46 267.5 1417.71 273.22C1420.14 278.767 1421.35 284.227 1421.35 289.6C1421.35 297.4 1419.01 304.333 1414.33 310.4C1409.83 316.293 1403.59 320.887 1395.61 324.18C1387.81 327.473 1378.89 329.12 1368.83 329.12Z" fill="white"/>
</svg>
