<svg width="50" height="50" viewBox="0 0 50 50" fill="none" xmlns="http://www.w3.org/2000/svg">
<path d="M47.6562 42.1875H46.875V14.0625C46.875 13.2337 46.5458 12.4388 45.9597 11.8528C45.3737 11.2667 44.5788 10.9375 43.75 10.9375H39.8438V0.78125C39.8438 0.57405 39.7614 0.375336 39.6149 0.228823C39.4684 0.08231 39.2697 0 39.0625 0L10.9375 0C10.7303 0 10.5316 0.08231 10.3851 0.228823C10.2386 0.375336 10.1562 0.57405 10.1562 0.78125V10.9375H6.25C5.4212 10.9375 4.62634 11.2667 4.04029 11.8528C3.45424 12.4388 3.125 13.2337 3.125 14.0625V42.1875H2.34375C1.72215 42.1875 1.12601 42.4344 0.686468 42.874C0.24693 43.3135 0 43.9096 0 44.5312L0 46.0938C0 47.1298 0.41155 48.1233 1.14411 48.8559C1.87668 49.5885 2.87025 50 3.90625 50H46.0938C47.1298 50 48.1233 49.5885 48.8559 48.8559C49.5885 48.1233 50 47.1298 50 46.0938V44.5312C50 43.9096 49.7531 43.3135 49.3135 42.874C48.874 42.4344 48.2779 42.1875 47.6562 42.1875ZM7.8125 39.0625V15.625H10.1562V39.0625H7.8125ZM11.7188 6.25H38.2812V39.0625H11.7188V6.25ZM39.8438 15.625H42.1875V39.0625H39.8438V15.625ZM11.7188 1.5625H38.2812V4.6875H11.7188V1.5625ZM4.6875 14.0625C4.6875 13.6481 4.85212 13.2507 5.14515 12.9576C5.43817 12.6646 5.8356 12.5 6.25 12.5H10.1562V14.0625H7.03125C6.82405 14.0625 6.62534 14.1448 6.47882 14.2913C6.33231 14.4378 6.25 14.6365 6.25 14.8438V39.8438C6.25 40.0509 6.33231 40.2497 6.47882 40.3962C6.62534 40.5427 6.82405 40.625 7.03125 40.625H42.9688C43.1759 40.625 43.3747 40.5427 43.5212 40.3962C43.6677 40.2497 43.75 40.0509 43.75 39.8438V14.8438C43.75 14.6365 43.6677 14.4378 43.5212 14.2913C43.3747 14.1448 43.1759 14.0625 42.9688 14.0625H39.8438V12.5H43.75C44.1644 12.5 44.5618 12.6646 44.8549 12.9576C45.1479 13.2507 45.3125 13.6481 45.3125 14.0625V42.1875H4.6875V14.0625ZM31.3516 43.75L30.8281 44.5312H19.1719L18.6484 43.75H31.3516ZM48.4375 46.0938C48.4375 46.7154 48.1906 47.3115 47.751 47.751C47.3115 48.1906 46.7154 48.4375 46.0938 48.4375H3.90625C3.28465 48.4375 2.68851 48.1906 2.24897 47.751C1.80943 47.3115 1.5625 46.7154 1.5625 46.0938V44.5312C1.5625 44.3241 1.64481 44.1253 1.79132 43.9788C1.93784 43.8323 2.13655 43.75 2.34375 43.75H16.7656L18.1016 45.7422C18.4297 46.2422 17.7812 46.0938 31.25 46.0938C31.7891 46.0938 31.8281 45.8594 33.2344 43.75H47.6562C47.8634 43.75 48.0622 43.8323 48.2087 43.9788C48.3552 44.1253 48.4375 44.3241 48.4375 44.5312V46.0938Z" fill="#ECFEFF"/>
<path d="M14.0625 2.34375C13.8553 2.34375 13.6566 2.42606 13.5101 2.57257C13.3636 2.71909 13.2812 2.9178 13.2812 3.125C13.2812 3.3322 13.3636 3.53091 13.5101 3.67743C13.6566 3.82394 13.8553 3.90625 14.0625 3.90625C14.2697 3.90625 14.4684 3.82394 14.6149 3.67743C14.7614 3.53091 14.8438 3.3322 14.8438 3.125C14.8438 2.9178 14.7614 2.71909 14.6149 2.57257C14.4684 2.42606 14.2697 2.34375 14.0625 2.34375Z" fill="#ECFEFF"/>
<path d="M17.1875 2.34375C16.9803 2.34375 16.7816 2.42606 16.6351 2.57257C16.4886 2.71909 16.4062 2.9178 16.4062 3.125C16.4062 3.3322 16.4886 3.53091 16.6351 3.67743C16.7816 3.82394 16.9803 3.90625 17.1875 3.90625C17.3947 3.90625 17.5934 3.82394 17.7399 3.67743C17.8864 3.53091 17.9688 3.3322 17.9688 3.125C17.9688 2.9178 17.8864 2.71909 17.7399 2.57257C17.5934 2.42606 17.3947 2.34375 17.1875 2.34375Z" fill="#ECFEFF"/>
<path d="M20.3125 2.34375C20.1053 2.34375 19.9066 2.42606 19.7601 2.57257C19.6136 2.71909 19.5312 2.9178 19.5312 3.125C19.5312 3.3322 19.6136 3.53091 19.7601 3.67743C19.9066 3.82394 20.1053 3.90625 20.3125 3.90625C20.5197 3.90625 20.7184 3.82394 20.8649 3.67743C21.0114 3.53091 21.0938 3.3322 21.0938 3.125C21.0938 2.9178 21.0114 2.71909 20.8649 2.57257C20.7184 2.42606 20.5197 2.34375 20.3125 2.34375Z" fill="#ECFEFF"/>
<path d="M19.3672 22.8828C20.2044 23.6227 21.1822 24.186 22.2422 24.5391C23.3787 24.9215 24.5823 25.0635 25.7766 24.9559C26.971 24.8483 28.1298 24.4935 29.1797 23.9141C36.9219 19.6094 33.7969 7.8125 25 7.8125C23.2517 7.81571 21.546 8.35205 20.1105 9.34995C18.675 10.3479 17.578 11.7598 16.9659 13.3975C16.3538 15.0351 16.2558 16.8204 16.6848 18.5152C17.1139 20.2101 18.0496 21.7337 19.3672 22.8828ZM22.9375 14.9844V14.2734C22.9375 13.7264 23.1548 13.2018 23.5416 12.815C23.9284 12.4282 24.453 12.2109 25 12.2109C25.547 12.2109 26.0716 12.4282 26.4584 12.815C26.8452 13.2018 27.0625 13.7264 27.0625 14.2734V14.9844C27.0625 15.5314 26.8452 16.056 26.4584 16.4428C26.0716 16.8296 25.547 17.0469 25 17.0469C24.453 17.0469 23.9284 16.8296 23.5416 16.4428C23.1548 16.056 22.9375 15.5314 22.9375 14.9844ZM28.9688 22.2031C27.7996 23.0026 26.4163 23.4303 25 23.4303C23.5837 23.4303 22.2004 23.0026 21.0313 22.2031C20.7969 22.0391 20.8281 22.1641 21.0313 21.4219C21.3092 20.6001 21.8379 19.8861 22.5428 19.3804C23.2477 18.8747 24.0934 18.6028 24.9609 18.6028C25.8285 18.6028 26.6742 18.8747 27.3791 19.3804C28.084 19.8861 28.6126 20.6001 28.8906 21.4219C29.1719 22.1641 29.2031 22.0391 28.9688 22.2031ZM25 9.375C26.3359 9.3758 27.6439 9.75715 28.771 10.4744C29.898 11.1917 30.7973 12.2152 31.3638 13.425C31.9302 14.6349 32.1402 15.9811 31.9692 17.3061C31.7983 18.631 31.2534 19.8798 30.3984 20.9062C30.1531 20.1921 29.7685 19.5336 29.2669 18.9691C28.7654 18.4045 28.1569 17.945 27.4766 17.6172C27.9139 17.1869 28.2453 16.6608 28.4446 16.0806C28.6438 15.5003 28.7056 14.8817 28.625 14.2734C28.625 13.312 28.2431 12.39 27.5633 11.7102C26.8834 11.0304 25.9614 10.6484 25 10.6484C24.0386 10.6484 23.1166 11.0304 22.4367 11.7102C21.7569 12.39 21.375 13.312 21.375 14.2734C21.375 15.4141 21.375 16.5156 22.5234 17.6172C21.8431 17.945 21.2346 18.4045 20.7331 18.9691C20.2315 19.5336 19.8469 20.1921 19.6016 20.9062C18.7466 19.8798 18.2017 18.631 18.0308 17.3061C17.8598 15.9811 18.0698 14.6349 18.6362 13.425C19.2027 12.2152 20.102 11.1917 21.229 10.4744C22.3561 9.75715 23.6641 9.3758 25 9.375Z" fill="#ECFEFF"/>
<path d="M33.5938 26.5625H16.4062C16.199 26.5625 16.0003 26.6448 15.8538 26.7913C15.7073 26.9378 15.625 27.1365 15.625 27.3438V30.4688C15.625 30.676 15.7073 30.8747 15.8538 31.0212C16.0003 31.1677 16.199 31.25 16.4062 31.25H33.5938C33.801 31.25 33.9997 31.1677 34.1462 31.0212C34.2927 30.8747 34.375 30.676 34.375 30.4688V27.3438C34.375 27.1365 34.2927 26.9378 34.1462 26.7913C33.9997 26.6448 33.801 26.5625 33.5938 26.5625ZM32.8125 29.6875H17.1875V28.125H32.8125V29.6875Z" fill="#ECFEFF"/>
<path d="M33.5938 32.8125H16.4062C16.199 32.8125 16.0003 32.8948 15.8538 33.0413C15.7073 33.1878 15.625 33.3865 15.625 33.5938V36.7188C15.625 36.926 15.7073 37.1247 15.8538 37.2712C16.0003 37.4177 16.199 37.5 16.4062 37.5H33.5938C33.801 37.5 33.9997 37.4177 34.1462 37.2712C34.2927 37.1247 34.375 36.926 34.375 36.7188V33.5938C34.375 33.3865 34.2927 33.1878 34.1462 33.0413C33.9997 32.8948 33.801 32.8125 33.5938 32.8125ZM32.8125 35.9375H17.1875V34.375H32.8125V35.9375Z" fill="#ECFEFF"/>
</svg>
