<svg width="50" height="50" viewBox="0 0 50 50" fill="none" xmlns="http://www.w3.org/2000/svg">
<g clip-path="url(#clip0_189_689)">
<path d="M46.2656 4.68751C23.7656 -0.296868 25.0937 6.66943e-06 24.8281 6.66943e-06L3.73436 4.68751C3.55813 4.7272 3.40109 4.82673 3.28999 4.96917C3.17888 5.11162 3.12058 5.28816 3.12499 5.46876V20.9688C3.15395 27.488 5.27315 33.826 9.1712 39.0515C13.0692 44.277 18.5406 48.1145 24.7812 50C24.9244 50.0392 25.0755 50.0392 25.2187 50C31.4594 48.1145 36.9307 44.277 40.8288 39.0515C44.7268 33.826 46.846 27.488 46.875 20.9688V5.46876C46.8794 5.28816 46.8211 5.11162 46.71 4.96917C46.5989 4.82673 46.4418 4.7272 46.2656 4.68751ZM45.3125 20.9688C45.2847 27.1116 43.3008 33.0858 39.6484 38.025C35.996 42.9641 30.8651 46.6113 25 48.4375C19.1348 46.6113 14.004 42.9641 10.3516 38.025C6.69919 33.0858 4.71524 27.1116 4.68749 20.9688V6.09376L25 1.56251L45.3125 6.09376V20.9688Z" fill="#ECFEFF"/>
<path d="M8.42186 8.46876C8.24563 8.50845 8.08859 8.60799 7.97749 8.75043C7.86638 8.89287 7.80808 9.06942 7.81249 9.25001V20.9688C7.82553 26.2298 9.45611 31.3595 12.4831 35.6625C15.5102 39.9654 19.7872 43.2335 24.7344 45.0234C24.906 45.0855 25.094 45.0855 25.2656 45.0234C30.2128 43.2335 34.4898 39.9654 37.5168 35.6625C40.5439 31.3595 42.1744 26.2298 42.1875 20.9688V9.25001C42.1919 9.06942 42.1336 8.89287 42.0225 8.75043C41.9114 8.60799 41.7543 8.50845 41.5781 8.46876C24.0078 4.56251 25.0859 4.76564 24.8281 4.82033L8.42186 8.46876ZM40.625 9.85939V20.9688C40.6137 25.8603 39.1123 30.6322 36.3209 34.649C33.5295 38.6659 29.5805 41.7369 25 43.4531C20.4194 41.7369 16.4705 38.6659 13.6791 34.649C10.8877 30.6322 9.38632 25.8603 9.37499 20.9688V9.85939L25 6.38283L40.625 9.85939Z" fill="#ECFEFF"/>
<path d="M16.4062 27.3438C17.1015 27.3438 17.1875 26.4844 18.75 25.5547C18.7075 26.3148 18.7494 27.0773 18.875 27.8281C18.1026 28.2168 17.4588 28.8202 17.0209 29.5657C16.583 30.3113 16.3696 31.1674 16.4062 32.0313C16.4062 32.2385 16.4885 32.4372 16.635 32.5837C16.7816 32.7302 16.9803 32.8125 17.1875 32.8125C17.3947 32.8125 17.5934 32.7302 17.7399 32.5837C17.8864 32.4372 17.9687 32.2385 17.9687 32.0313C17.9358 31.4919 18.0526 30.954 18.3063 30.477C18.56 29.9999 18.9407 29.6023 19.4062 29.3281C19.9246 30.3682 20.7226 31.2431 21.7107 31.8547C22.6989 32.4662 23.8379 32.7902 25 32.7902C26.162 32.7902 27.3011 32.4662 28.2892 31.8547C29.2773 31.2431 30.0754 30.3682 30.5937 29.3281C31.0581 29.6036 31.4378 30.0015 31.6913 30.4782C31.9448 30.955 32.0624 31.4922 32.0312 32.0313C32.0312 32.2385 32.1135 32.4372 32.26 32.5837C32.4066 32.7302 32.6053 32.8125 32.8125 32.8125C33.0197 32.8125 33.2184 32.7302 33.3649 32.5837C33.5114 32.4372 33.5937 32.2385 33.5937 32.0313C33.6304 31.1674 33.4169 30.3113 32.979 29.5657C32.5411 28.8202 31.8973 28.2168 31.125 27.8281C31.2504 27.0773 31.2924 26.3148 31.25 25.5547C32.8125 26.4766 32.8906 27.3438 33.5937 27.3438C33.7409 27.3446 33.8852 27.3038 34.0102 27.2262C34.1352 27.1485 34.2357 27.0372 34.3002 26.9049C34.3646 26.7727 34.3905 26.625 34.3747 26.4787C34.3589 26.3324 34.3021 26.1936 34.2109 26.0781C33.4106 25.1079 32.3974 24.3353 31.25 23.8203V22.2578C31.9749 22.0167 32.5988 21.541 33.0233 20.9057C33.4477 20.2705 33.6484 19.512 33.5937 18.75C33.5937 18.5428 33.5114 18.3441 33.3649 18.1976C33.2184 18.0511 33.0197 17.9688 32.8125 17.9688C32.6053 17.9688 32.4066 18.0511 32.26 18.1976C32.1135 18.3441 32.0312 18.5428 32.0312 18.75C32.0914 19.1402 32.0254 19.5394 31.8427 19.8893C31.66 20.2393 31.3702 20.5217 31.0156 20.6953C30.8307 20.2465 30.5439 19.8469 30.1777 19.5282C29.8116 19.2096 29.3763 18.9806 28.9062 18.8594C28.9311 17.8348 28.5523 16.8416 27.8515 16.0938C28.9062 13.6719 26.5625 13.6328 26.5625 14.8438C26.5545 14.9463 26.5388 15.0482 26.5156 15.1484C26.0358 14.9465 25.5205 14.8424 25 14.8424C24.4794 14.8424 23.9641 14.9465 23.4844 15.1484C23.4611 15.0482 23.4455 14.9463 23.4375 14.8438C23.4375 13.6328 21.0937 13.6719 22.1484 16.0938C21.4477 16.8416 21.0689 17.8348 21.0937 18.8594C20.6237 18.9806 20.1884 19.2096 19.8222 19.5282C19.4561 19.8469 19.1692 20.2465 18.9844 20.6953C18.6597 20.5341 18.39 20.2805 18.2092 19.9663C18.0285 19.6521 17.9448 19.2914 17.9687 18.9297C17.9687 17.5859 16.4062 17.7656 16.4062 18.75C16.3429 19.5174 16.5397 20.2837 16.9648 20.9257C17.39 21.5676 18.0188 22.0479 18.75 22.2891V23.8516C17.6025 24.3665 16.5893 25.1392 15.789 26.1094C15.7067 26.2249 15.6574 26.3607 15.6464 26.5021C15.6354 26.6435 15.6631 26.7852 15.7265 26.9121C15.79 27.039 15.8867 27.1462 16.0065 27.2222C16.1262 27.2983 16.2644 27.3403 16.4062 27.3438ZM27.3437 18.75H22.6562C22.6562 18.1284 22.9032 17.5323 23.3427 17.0927C23.7822 16.6532 24.3784 16.4063 25 16.4063C25.6216 16.4063 26.2177 16.6532 26.6573 17.0927C27.0968 17.5323 27.3437 18.1284 27.3437 18.75ZM20.3125 21.875C20.3125 21.4606 20.4771 21.0632 20.7701 20.7702C21.0631 20.4771 21.4606 20.3125 21.875 20.3125H28.125C28.5394 20.3125 28.9368 20.4771 29.2298 20.7702C29.5229 21.0632 29.6875 21.4606 29.6875 21.875V26.5625C29.6864 27.6694 29.2935 28.7403 28.5786 29.5853C27.8636 30.4304 26.8727 30.9952 25.7812 31.1797V22.6563C25.7812 22.4491 25.6989 22.2503 25.5524 22.1038C25.4059 21.9573 25.2072 21.875 25 21.875C24.7928 21.875 24.5941 21.9573 24.4475 22.1038C24.301 22.2503 24.2187 22.4491 24.2187 22.6563V31.1797C23.1273 30.9952 22.1363 30.4304 21.4214 29.5853C20.7064 28.7403 20.3136 27.6694 20.3125 26.5625V21.875Z" fill="#ECFEFF"/>
</g>
<defs>
<clipPath id="clip0_189_689">
<rect width="50" height="50" fill="white"/>
</clipPath>
</defs>
</svg>
