<svg width="30" height="30" viewBox="0 0 30 30" fill="none" xmlns="http://www.w3.org/2000/svg">
<path d="M24.5412 9.99618C24.5575 10.2149 24.5575 10.4324 24.5575 10.6499C24.5575 17.3062 19.4912 24.9762 10.2325 24.9762C7.38 24.9762 4.73 24.1499 2.5 22.7149C2.905 22.7612 3.295 22.7774 3.71625 22.7774C5.98249 22.7829 8.18456 22.0251 9.9675 20.6262C8.91678 20.6072 7.89822 20.2605 7.05405 19.6346C6.20988 19.0087 5.58223 18.1348 5.25875 17.1349C5.57 17.1812 5.8825 17.2124 6.21 17.2124C6.66125 17.2124 7.115 17.1499 7.53625 17.0412C6.39595 16.811 5.37059 16.1929 4.63452 15.292C3.89845 14.3912 3.49712 13.2632 3.49875 12.0999V12.0374C4.17 12.4112 4.94875 12.6449 5.77375 12.6762C5.08261 12.2169 4.5159 11.5937 4.12417 10.8622C3.73245 10.1306 3.52789 9.3135 3.52875 8.48368C3.52875 7.54868 3.7775 6.69118 4.21375 5.94368C5.47892 7.49996 7.05688 8.77313 8.84542 9.68076C10.634 10.5884 12.5932 11.1102 14.5963 11.2124C14.5188 10.8374 14.4712 10.4487 14.4712 10.0587C14.4709 9.39738 14.6009 8.74251 14.8538 8.13148C15.1068 7.52046 15.4776 6.96528 15.9452 6.49767C16.4128 6.03006 16.968 5.6592 17.5791 5.40628C18.1901 5.15336 18.845 5.02335 19.5062 5.02368C20.9562 5.02368 22.265 5.63118 23.185 6.61368C24.3122 6.3957 25.3932 5.98421 26.38 5.39743C26.0043 6.56095 25.2172 7.54756 24.1663 8.17243C25.166 8.05841 26.143 7.7955 27.065 7.39243C26.3764 8.39631 25.5232 9.27661 24.5412 9.99618Z" fill="#293F48"/>
</svg>
